<svg width="93" height="93" fill="none" xmlns="http://www.w3.org/2000/svg">
    <path d="M66.011 19.78H20.818a.861.861 0 0 0-.861.862v28.974c0 .476.386.861.861.861h45.193a.861.861 0 0 0 .861-.86V20.641a.861.861 0 0 0-.861-.861Z"
          fill="#fff"/>
    <path d="M66.009 20.642v28.974H20.816V20.642h45.193Zm0-1.723H20.816a1.722 1.722 0 0 0-1.722 1.723v28.974a1.722 1.722 0 0 0 1.722 1.723h45.193a1.722 1.722 0 0 0 1.722-1.723V20.642a1.721 1.721 0 0 0-1.722-1.723Z"
          fill="#272629"/>
    <path d="M16.757 63.126a.862.862 0 0 1-.82-1.126l4.061-12.649a.861.861 0 0 1 .82-.598h45.193a.86.86 0 0 1 .82.598L70.89 62a.862.862 0 0 1-.82 1.124l-53.314.002Z"
          fill="#fff"/>
    <path d="m66.012 49.617 4.06 12.648H16.759l4.06-12.648h45.194Zm0-1.723H20.819a1.722 1.722 0 0 0-1.636 1.196l-4.066 12.652a1.722 1.722 0 0 0 1.637 2.248h53.319a1.722 1.722 0 0 0 1.636-2.248L67.65 49.09a1.722 1.722 0 0 0-1.636-1.196h-.003Z"
          fill="#272629"/>
    <path d="M70.07 61.404H16.756a.861.861 0 0 0-.861.861v3.692c0 .475.385.86.86.86h53.316a.861.861 0 0 0 .86-.86v-3.692a.861.861 0 0 0-.86-.86Z"
          fill="#fff"/>
    <path d="M70.072 62.265v3.696H16.757v-3.696h53.315Zm0-1.722H16.757a1.722 1.722 0 0 0-1.722 1.722v3.696a1.722 1.722 0 0 0 1.722 1.722h53.315a1.723 1.723 0 0 0 1.722-1.722v-3.696a1.722 1.722 0 0 0-1.722-1.722Z"
          fill="#272629"/>
    <path d="M49.453 53.706H37.375v7.245h12.078v-7.245Z" fill="#FFED69" stroke="#272629" stroke-width="1.5"
          stroke-linecap="round" stroke-linejoin="round"/>
    <path d="M61.242 24.88H25.75v19.553h35.492V24.881Z" fill="#E3E5FD"/>
    <path d="M61.242 41.365v4.142H25.75V24.881h4.417M36.004 24.88h25.238v7.414" stroke="#272629" stroke-width="1.5"
          stroke-linecap="round" stroke-linejoin="round"/>
    <path d="M78.04 72.358H62.103L57.2 43.811h25.746L78.04 72.359Z" fill="#fff" stroke="#272629" stroke-width="2"
          stroke-linecap="round" stroke-linejoin="round"/>
    <path d="M80.52 63.534H59.706l-1.588-9.212h23.91l-1.506 9.212Z" fill="#6357FF" stroke="#000" stroke-width="1.5"
          stroke-linecap="round" stroke-linejoin="round"/>
    <path d="M72.119 23.482c-1.028.79-2.163 1.813-2.04 3.1.138 1.434 1.74 2.214 3.15 2.507 3.646.758 7.478.13 11.109.953.586.132 1.184.315 1.627.718.444.404.682 1.089.413 1.625-.47.933-2.153 1.181-3.057 1.372-1.42.295-2.878.356-4.318.181-1.368-.165-2.755-.848-4.133-.81-.775.02-1.6.42-1.846 1.152-.246.733.43 1.684 1.175 1.488"
          stroke="#272629" stroke-width="1.5" stroke-linecap="round" stroke-linejoin="round"/>
    <path d="M55.389 48.362a.86.86 0 0 1-.851-.996l.98-6.137a.861.861 0 0 1 .852-.725h27.407a.86.86 0 0 1 .85.725l.98 6.137a.86.86 0 0 1-.85.996H55.39Z"
          fill="#FFED69"/>
    <path d="m83.775 41.365.98 6.137h-29.37l.982-6.137h27.408Zm0-1.722H56.367a1.722 1.722 0 0 0-1.7 1.45l-.981 6.137a1.72 1.72 0 0 0 1.7 1.994h29.37a1.722 1.722 0 0 0 1.698-1.994l-.98-6.137a1.722 1.722 0 0 0-1.701-1.45h.002Z"
          fill="#272629"/>
    <path d="M15.7 45.507a2.487 2.487 0 1 0-4.973-.002 2.487 2.487 0 0 0 4.973.002Zm-2.486.937a.938.938 0 1 1 0-1.875.938.938 0 0 1 0 1.875ZM87.242 23.129a2.486 2.486 0 1 0-4.973 0 2.486 2.486 0 0 0 4.973 0Zm-2.486.936a.937.937 0 1 1 0-1.874.937.937 0 0 1 0 1.874ZM8.244 40.105a2.488 2.488 0 1 0 0-4.976 2.488 2.488 0 0 0 0 4.976Zm0-3.423a.936.936 0 1 1 0 1.87.936.936 0 0 1 0-1.869v-.001Z"
          fill="#6357FF"/>
</svg>