<svg width="58" height="63" fill="none" xmlns="http://www.w3.org/2000/svg">
    <path d="M29 57.12c15.464 0 28-12.563 28-28.06C57 13.563 44.464 1 29 1S1 13.563 1 29.06a27.976 27.976 0 0 0 5.884 17.21"
          stroke="#6357FF" stroke-width="2" stroke-linecap="round" stroke-linejoin="round"/>
    <path d="M29 49.8a20.668 20.668 0 0 1-13.129-4.708 20.748 20.748 0 0 1-7.169-11.986 20.779 20.779 0 0 1 2.046-13.823A20.711 20.711 0 0 1 21.08 9.9a20.654 20.654 0 0 1 13.928-.686 20.7 20.7 0 0 1 11.2 8.324 20.774 20.774 0 0 1-2.573 26.188 20.56 20.56 0 0 1-6.71 4.506A20.523 20.523 0 0 1 29 49.8Z"
          fill="#fff"/>
    <path d="M28.974 9.304c10.92 0 19.775 8.873 19.775 19.817 0 10.945-8.854 19.818-19.775 19.818-10.922 0-19.776-8.873-19.776-19.818 0-10.944 8.854-19.817 19.776-19.817Zm0-1.594a21.279 21.279 0 0 0-14.284 5.533 21.383 21.383 0 0 0-2.825 28.503 21.3 21.3 0 0 0 12.918 8.242 21.265 21.265 0 0 0 15.097-2.572c4.54-2.703 7.918-7 9.476-12.057a21.392 21.392 0 0 0-1.043-15.311A21.324 21.324 0 0 0 37.29 9.393a21.204 21.204 0 0 0-8.317-1.683Z"
          fill="#272629"/>
    <path d="M29.233 9.54a19.9 19.9 0 0 0-1.452.053c10.286.743 18.4 9.311 18.4 19.77 0 10.46-8.114 19.032-18.4 19.774.48.035.963.053 1.452.053 10.964 0 19.853-8.876 19.853-19.825 0-10.95-8.889-19.825-19.853-19.825Z"
          fill="#FFED69"/>
    <path d="m28.39 52.85-4.261 4.575L28.389 62v-9.15Z" fill="#6357FF" stroke="#6357FF" stroke-width="2"
          stroke-linecap="round" stroke-linejoin="round"/>
    <path d="M29 11.37v3.66M29 42.48v4.27M46.652 29.06H43M15 29.06h-3.652M41.782 16.25l-3.044 3.05M19.259 38.82l-2.435 2.44M41.782 41.26l-3.044-2.44M19.259 19.3l-2.435-3.05M28.998 19.3v10.085l-4.87 5.165"
          stroke="#272629" stroke-width="2" stroke-linecap="round" stroke-linejoin="round"/>
</svg>