<svg width="108" height="108" fill="none" xmlns="http://www.w3.org/2000/svg">
    <path d="M53.75.47a53.66 53.66 0 1 0 53.66 53.66 53.66 53.66 0 0 0-15.714-37.946A53.65 53.65 0 0 0 53.75.47Zm12.47 77a27.51 27.51 0 0 1-15.49 4.9 25.002 25.002 0 0 1-9-1.67l-1.67 1.66-9.74-.06h-.1l-10.79-.08L35.67 66 57.3 44.71a1.931 1.931 0 0 0 .58-1.39v-9a8.47 8.47 0 0 1 16.44-2.86 2 2 0 0 0 .52.79l2.52 2.29a1.07 1.07 0 0 1 .3 1.11 1 1 0 0 1-.88.72 3.697 3.697 0 0 0-2.65 1.54 3.42 3.42 0 0 0 0 3.63 26.9 26.9 0 0 1 3.81 13.83 26.17 26.17 0 0 1-11.72 22.09"
          fill="#6357FF"/>
</svg>