<svg width="146" height="24" fill="none" xmlns="http://www.w3.org/2000/svg">
    <path d="M1.58 23.977c-.21.006-.419-.03-.614-.106a1.506 1.506 0 01-.516-.334 1.493 1.493 0 01-.342-.502 1.434 1.434 0 01-.107-.59V2.532a1.417 1.417 0 01.112-.592c.079-.188.198-.359.35-.501.144-.142.318-.255.51-.33.193-.076.4-.113.608-.11a1.65 1.65 0 01.619.11c.196.077.375.19.524.332a1.5 1.5 0 01.347.501c.08.187.118.388.114.59v18.402H14.39c.427 0 .836.161 1.138.449.302.287.472.677.472 1.084 0 .406-.17.796-.472 1.083A1.652 1.652 0 0114.39 24l-12.81-.023zM26.532 23.998a1.448 1.448 0 01-.742-.177 1.427 1.427 0 01-.545-.529 1.531 1.531 0 01-.088-1.503L33.53 2.031c.1-.304.297-.568.56-.753.263-.185.58-.282.903-.276.325-.016.646.076.91.263.265.187.458.457.547.766l8.403 19.816a1.529 1.529 0 01-.1 1.486c-.136.215-.328.39-.557.508a1.455 1.455 0 01-.741.157 1.57 1.57 0 01-.849-.249 1.41 1.41 0 01-.585-.694L34.636 4.916h.831l-7.507 18.14a1.52 1.52 0 01-.585.705 1.57 1.57 0 01-.82.237h-.023zm1.603-5.065l1.17-2.533h11.703l1.17 2.533H28.136zM63.672 24c-1.236.01-2.464-.19-3.635-.59a9.408 9.408 0 01-3.004-1.678 6.592 6.592 0 01-1.876-2.492 1.185 1.185 0 010-1.178 1.508 1.508 0 011.052-.695 1.469 1.469 0 011.057.17c.352.187.63.488.79.855a3.88 3.88 0 001.169 1.378c.6.448 1.27.792 1.981 1.02a7.634 7.634 0 002.443.388 7.45 7.45 0 002.63-.448 4.674 4.674 0 001.952-1.307 3.09 3.09 0 00.743-2.115 3.984 3.984 0 00-1.234-2.85c-.822-.837-2.176-1.356-4.062-1.556-2.462-.24-4.397-.97-5.804-2.191a5.714 5.714 0 01-1.576-2.02 5.755 5.755 0 01-.54-2.51 5.198 5.198 0 011.105-3.358A6.815 6.815 0 0159.85.721 11.834 11.834 0 0164.064 0a8.921 8.921 0 013.168.513c.87.315 1.673.793 2.367 1.408a9.169 9.169 0 011.753 2.127c.254.363.374.805.34 1.248a1.255 1.255 0 01-.585.913 1.396 1.396 0 01-1.222.154 1.667 1.667 0 01-.982-.784 5.384 5.384 0 00-1.169-1.472 5.25 5.25 0 00-1.607-.943 6.192 6.192 0 00-2.168-.342 7.068 7.068 0 00-3.694.825c-.47.249-.86.627-1.125 1.092a2.827 2.827 0 00-.365 1.53c.003.605.162 1.2.461 1.725a3.748 3.748 0 001.701 1.426c1.13.476 2.331.76 3.553.842 2.362.236 4.203.96 5.524 2.174a6.15 6.15 0 011.515 2.17c.342.827.501 1.718.466 2.613a5.986 5.986 0 01-.701 2.945 6.42 6.42 0 01-1.876 2.115 8.358 8.358 0 01-2.677 1.278c-1.013.279-2.06.42-3.11.418M86.493 24a1.424 1.424 0 01-.567-.111 1.456 1.456 0 01-.48-.329A1.512 1.512 0 0185 22.466V2.54a1.512 1.512 0 01.444-1.094c.138-.141.301-.253.481-.328.18-.076.373-.114.567-.111a1.397 1.397 0 011.06.44 1.522 1.522 0 01.434 1.094v8.837l9.491-9.758c.184-.197.4-.36.637-.48.186-.09.39-.136.597-.133.194-.02.39.01.571.087.18.077.34.198.465.352a1.4 1.4 0 01.231 1.048 2.05 2.05 0 01-.563 1.105l-7.323 7.524L99.55 21.54c.224.31.327.694.287 1.077-.028.36-.168.7-.4.972a1.168 1.168 0 01-.415.306c-.159.069-.33.1-.503.093a1.37 1.37 0 01-.7-.156 1.417 1.417 0 01-.534-.492l-7.26-10.11-2.063 2.123v7.102a1.525 1.525 0 01-.433 1.094 1.43 1.43 0 01-.485.333 1.396 1.396 0 01-.574.106M114.5 23.976a1.439 1.439 0 01-1.068-.44 1.53 1.53 0 01-.431-1.092V2.533a1.493 1.493 0 01.1-.6 1.462 1.462 0 011.399-.933 1.41 1.41 0 011.079.43 1.5 1.5 0 01.42 1.104v19.931a1.531 1.531 0 01-.419 1.093 1.403 1.403 0 01-1.08.44M131.502 23.975a1.427 1.427 0 01-1.065-.44 1.488 1.488 0 01-.436-1.092V2.533c-.008-.204.027-.409.103-.599.075-.19.188-.362.333-.505a1.424 1.424 0 011.065-.428h13.025c.393-.017.778.124 1.07.394.134.136.239.3.308.48s.101.373.094.566a1.32 1.32 0 01-.402 1 1.482 1.482 0 01-1.07.388h-11.542v7.153h8.28a1.437 1.437 0 011.064.4c.259.271.403.635.403 1.014s-.144.743-.403 1.015a1.437 1.437 0 01-1.064.399h-8.28v7.36h11.536c.392-.017.775.12 1.07.382a1.334 1.334 0 01.402 1.007 1.406 1.406 0 01-.402 1.04 1.474 1.474 0 01-1.07.4l-13.019-.024z"
          fill="#6357FF"/>
</svg>