<svg width="91" height="91" fill="none" xmlns="http://www.w3.org/2000/svg">
    <path d="M38.24 13.903c13.585 0 24.597 11.01 24.597 24.595 0 13.584-11.012 24.595-24.597 24.595-13.584 0-24.59-11.013-24.59-24.597 0-13.583 11.007-24.593 24.59-24.593Zm0-1.685a26.194 26.194 0 1 0 .072 52.387 26.194 26.194 0 0 0-.072-52.387Z"
          fill="#272629"/>
    <path d="M53.64 19.318a24.493 24.493 0 0 1 5.417 15.397c0 13.583-11.012 24.595-24.596 24.595a24.495 24.495 0 0 1-15.398-5.417 24.55 24.55 0 0 0 19.178 9.199c13.584 0 24.596-11.012 24.596-24.596a24.548 24.548 0 0 0-9.198-19.178Z"
          fill="#E3E5FD"/>
    <path d="M38.846 24.87a3.19 3.19 0 1 0 0-6.378 3.19 3.19 0 0 0 0 6.379ZM19.889 42.509a2.783 2.783 0 1 0 0-5.566 2.783 2.783 0 0 0 0 5.566Z"
          fill="#FFED69" stroke="#272629" stroke-width="2" stroke-linecap="round" stroke-linejoin="round"/>
    <ellipse cx="41.5" cy="43" rx="2.5" ry="2" fill="#FFED69"/>
    <path d="M41.653 41.493a1.403 1.403 0 1 1 0 2.807 1.403 1.403 0 0 1 0-2.806Zm0-1.685a3.089 3.089 0 1 0 0 6.178 3.089 3.089 0 0 0 .002-6.178h-.002Z"
          fill="#272629"/>
    <path d="M66.933 31.075a3.647 3.647 0 0 1 1.992 4.757l-14.73 35.95-6.749-2.765 14.73-35.95a3.647 3.647 0 0 1 4.757-1.992Z"
          fill="#fff" stroke="#272629" stroke-width="2" stroke-linecap="round" stroke-linejoin="round"/>
    <path d="m47.438 69.02 1.267 6.523 5.48-3.758-6.748-2.766Z" fill="#FFED69" stroke="#272629" stroke-width="2"
          stroke-linecap="round" stroke-linejoin="round"/>
    <path d="m56.824 46.112 6.748 2.766M67.645 38.942l2.358.967-5.401 13.18" stroke="#272629" stroke-width="2"
          stroke-linecap="round" stroke-linejoin="round"/>
    <path d="M74.24 24.462a.65.65 0 0 0 .65-.65V22.38a.65.65 0 1 0-1.3 0v1.432a.65.65 0 0 0 .65.65ZM74.894 29.557v-1.433a.65.65 0 0 0-1.3 0v1.433a.65.65 0 0 0 1.3 0ZM76.397 26.616h1.432a.652.652 0 0 0 .475-1.118.652.652 0 0 0-.475-.182h-1.432a.65.65 0 0 0 0 1.3ZM72.091 25.317h-1.437a.65.65 0 0 0 0 1.3h1.437a.65.65 0 0 0 0-1.3ZM31.416 72.56a.65.65 0 0 0 .65-.65v-1.433a.65.65 0 0 0-1.3 0v1.432a.65.65 0 0 0 .65.65ZM32.066 77.653v-1.432a.65.65 0 0 0-1.3 0v1.432a.652.652 0 0 0 .904.623.65.65 0 0 0 .396-.623ZM33.572 74.714h1.433a.652.652 0 0 0 .622-.905.651.651 0 0 0-.622-.395h-1.433a.65.65 0 0 0 0 1.3ZM29.263 73.413H27.83a.65.65 0 0 0 0 1.3h1.433a.652.652 0 0 0 .622-.904.651.651 0 0 0-.622-.395Z"
          fill="#6357FF"/>
</svg>